<svg width="1600" height="900" viewBox="0 0 1600 900" fill="none" xmlns="http://www.w3.org/2000/svg">
  <defs>
    <linearGradient id="bg" x1="0" y1="0" x2="1600" y2="900" gradientUnits="userSpaceOnUse">
      <stop offset="0" stop-color="#061636"/>
      <stop offset="0.6" stop-color="#0B2A5B"/>
      <stop offset="1" stop-color="#1C3D7C"/>
    </linearGradient>
    <linearGradient id="accent" x1="210" y1="730" x2="1380" y2="190" gradientUnits="userSpaceOnUse">
      <stop offset="0" stop-color="#26E0B3"/>
      <stop offset="1" stop-color="#88A5FF"/>
    </linearGradient>
    <radialGradient id="glow" cx="0" cy="0" r="1" gradientUnits="userSpaceOnUse" gradientTransform="translate(1310 220) rotate(137.56) scale(370 310)">
      <stop stop-color="#92ADFF" stop-opacity="0.7"/>
      <stop offset="1" stop-color="#92ADFF" stop-opacity="0"/>
    </radialGradient>
  </defs>

  <rect width="1600" height="900" rx="42" fill="url(#bg)"/>
  <rect width="1600" height="900" rx="42" fill="url(#glow)"/>

  <circle cx="290" cy="168" r="188" fill="#1CE2B6" fill-opacity="0.09"/>
  <circle cx="1386" cy="742" r="255" fill="#7A9DFF" fill-opacity="0.12"/>

  <path d="M132 712C357 590 533 630 708 520C885 410 1060 188 1490 176" stroke="url(#accent)" stroke-opacity="0.72" stroke-width="7"/>

  <rect x="130" y="96" width="218" height="66" rx="33" fill="#21E1B3" fill-opacity="0.17" stroke="#43E8BE" stroke-opacity="0.7"/>
  <text x="239" y="139" fill="#BFFDEE" font-family="Inter, Arial, sans-serif" font-size="30" font-weight="800" text-anchor="middle">MOST POPULAR</text>

  <text x="130" y="282" fill="#F7FBFF" font-family="Inter, Arial, sans-serif" font-size="142" font-weight="900">PRO</text>
  <text x="130" y="390" fill="#C8D8FF" font-family="Inter, Arial, sans-serif" font-size="54" font-weight="500">$29/month</text>
  <text x="130" y="462" fill="#9FB4E5" font-family="Inter, Arial, sans-serif" font-size="42" font-weight="500">For growing engineering teams</text>

  <g fill="#EAF2FF" font-family="Inter, Arial, sans-serif" font-size="44" font-weight="600">
    <text x="198" y="584">100 scans per month</text>
    <text x="198" y="654">300 AI fixes included</text>
    <text x="198" y="724">$0.03 per extra AI fix</text>
    <text x="198" y="794">Priority support</text>
  </g>

  <g fill="#42E9C0">
    <path d="M130 554l20 20 36-46" stroke="#42E9C0" stroke-width="10" stroke-linecap="round" stroke-linejoin="round"/>
    <path d="M130 624l20 20 36-46" stroke="#42E9C0" stroke-width="10" stroke-linecap="round" stroke-linejoin="round"/>
    <path d="M130 694l20 20 36-46" stroke="#42E9C0" stroke-width="10" stroke-linecap="round" stroke-linejoin="round"/>
    <path d="M130 764l20 20 36-46" stroke="#42E9C0" stroke-width="10" stroke-linecap="round" stroke-linejoin="round"/>
  </g>
</svg>
